<?xml version="1.0" encoding="UTF-8"?>
<svg width="120" height="89" version="1.1" viewBox="0 0 120 89" xmlns="http://www.w3.org/2000/svg">
 <path d="m48.196 4.7494c-0.63039 0-1.1403 0.5142-1.1403 1.1459v8.064c-2.288 0.27053-4.0656 2.2134-4.0656 4.5742v7.2958c-4.9998 0.9239-9.4113 2.488-12.861 4.5068-0.08677-0.23225-0.18999-0.45983-0.32525-0.67294-1.5083-2.408-5.3937-2.6895-8.6847-0.62994-3.2898 2.0622-4.7373 5.6848-3.2264 8.0902 0.9022 1.4433 2.6654 2.116 4.6395 1.9833-0.1442 0.62655-0.22805 1.261-0.22805 1.9066 0 0.65081 0.087 1.2926 0.22993 1.9217-1.9741-0.13271-3.7392 0.54004-4.6414 1.9833-1.5109 2.408-0.06338 6.0275 3.2264 8.0884 3.2911 2.0596 7.1764 1.7799 8.6847-0.62808 0.13527-0.21694 0.24409-0.44749 0.33086-0.68229 5.708 3.3332 14.037 5.4377 23.323 5.4377 17.203 0 31.146-7.2186 31.146-16.121 0-7.8429-10.824-14.373-25.162-15.82v-6.6602c0-2.5458-2.0632-4.6096-4.6077-4.6096h-1.0973v-4.4376c0-0.63038-0.51233-1.144-1.144-1.144-0.63039 0-1.144 0.51362-1.144 1.144v4.4376h-2.1085v-8.0286c0-0.63167-0.51105-1.1459-1.144-1.1459zm35.33 9.3539c-1.1268 0-2.0355 0.90649-2.0432 2.0282-0.0038 1.1255 0.90649 2.0374 2.0282 2.0412 7.4205 0.0217 13.442 6.0726 13.426 13.499-0.0054 1.1204 0.90582 2.0356 2.03 2.0395 1.1191 0 2.0287-0.90581 2.0338-2.03 0.0281-9.6626-7.8141-17.548-17.474-17.577zm-0.90847 7.608c-1.1268-0.0051-2.0424 0.90725-2.0449 2.0226-0.0025 1.1293 0.91023 2.0398 2.0319 2.0449 1.7904 0 3.4636 0.7011 4.7218 1.9721 1.2646 1.2659 1.9547 2.9477 1.9496 4.7367-0.0051 1.1217 0.90973 2.0368 2.0263 2.0393 1.123 0.0025 2.0393-0.9052 2.0393-2.0282 0.01276-2.8738-1.1016-5.5788-3.1254-7.6155-2.029-2.0405-4.7274-3.1657-7.5987-3.1721zm-44.7 15.151c1.9971 0 3.6171 1.6206 3.6171 3.6152 0 1.9971-1.62 3.6171-3.6171 3.6171-1.9933 0-3.6152-1.62-3.6152-3.6171 0-1.9945 1.6219-3.6152 3.6152-3.6152zm15.542 0c1.9945 0 3.6115 1.6206 3.6115 3.6152 0 1.9971-1.6169 3.6171-3.6115 3.6171-1.9984 0-3.6171-1.62-3.6171-3.6171 0-1.9945 1.6187-3.6152 3.6171-3.6152zm15.538 0c1.9958 0 3.6133 1.6206 3.6133 3.6152 0 1.9971-1.6175 3.6171-3.6133 3.6171-1.9984 0-3.6171-1.62-3.6171-3.6171 0-1.9945 1.6187-3.6152 3.6171-3.6152zm-59.825 36.147c-2.5356 0-4.1722 1.2541-4.1722 3.1479 0 3.9329 5.5704 3.2784 5.5704 5.075 0 0.64315-0.56442 1.0113-1.6057 1.0113-1.2021 0-2.1683-0.36992-3.7405-1.4151v2.3628c1.0923 0.5602 2.0389 1.0599 3.948 1.0599 2.4425 0 4.2078-1.2219 4.2078-3.3236 0-3.8219-5.5723-3.3577-5.5723-5.0115 0-0.5449 0.62882-0.89912 1.6076-0.89912 0.93283 0 1.8775 0.27314 3.4675 0.98137v-2.1385c-1.3807-0.59466-2.4893-0.85052-3.7105-0.85052zm99.568 0c-4.1243 0-6.2752 2.9743-6.2752 5.621 0 2.7947 2.2606 5.619 6.2752 5.619 3.9329 0 6.2603-2.8091 6.2603-5.619 0-2.6313-2.1334-5.621-6.2603-5.621zm-70.666 0.14393v10.952h5.3312c3.1979 0 3.8713-1.9589 3.8713-3.2095 0-1.285-0.77033-2.4107-2.331-2.8114 0.91751-0.44919 1.4955-1.2696 1.4955-2.1833 0-1.2199-1.0455-2.7478-3.6283-2.7478h-4.7387zm-18.127 0.0014v6.2303c0 3.388 2.2951 4.8639 5.4751 4.8639 3.0014 0 5.477-1.2508 5.477-4.8826v-6.2117h-2.731v6.1032c0 1.9563-1.3339 2.7143-2.7759 2.7143-1.5785 0-2.716-0.94695-2.716-2.5217v-6.2958h-2.7292zm34.166 0v10.95h2.7292v-7.0155l6.0528 7.0155h2.2974v-10.95h-2.7292v6.6958l-5.8415-6.6958h-2.5086zm18.385 0v10.95h8.0753v-2.0058h-5.3424v-2.6339h4.9909v-2.0076h-4.9909v-2.2954h5.2321v-2.0076h-7.965zm14.983 0v10.952h2.7292v-4.4489h0.78697c1.4752 0 1.911 2.1059 3.0824 4.4489h3.002c-1.5377-3.2107-1.8778-4.5617-3.002-5.1219 1.2544-0.57935 1.8805-1.4796 1.8805-2.6843 0-1.6372-1.3343-3.146-3.5853-3.146h-4.8938zm-46.678 2.0076h1.43c0.99408 0 1.3963 0.59245 1.3963 1.1552 0 0.5768-0.40228 1.187-1.3963 1.187h-1.43v-2.3422zm49.407 0h1.3796c1.0298 0 1.5608 0.41634 1.5608 1.2356 0 0.93155-0.73998 1.2543-1.4955 1.2543h-1.4449v-2.4899zm18.53 0.1271c2.0711 0 3.4526 1.3344 3.4526 3.3404 0 2.0086-1.3815 3.3422-3.4526 3.3422-2.089 0-3.4675-1.3336-3.4675-3.3422 0-2.006 1.3786-3.3404 3.4675-3.3404zm-67.937 4.2264h1.9141c0.96218 0 1.6674 0.43233 1.6674 1.2337 0 0.94814-0.52662 1.3496-2.0375 1.3496h-1.5441v-2.5833z" fill="#FC8500"/>
</svg>
