<svg width="1500" height="1500" viewBox="0 0 1500 1500" fill="none" xmlns="http://www.w3.org/2000/svg">
<g clip-path="url(#clip0_8590_265)">
<path d="M751.875 0.234375C842.77 61.6805 930.028 116.878 1007.16 171.389C1097.36 218.73 1134.8 245.128 1195.44 303.977C1242.08 258.743 1278.67 222.087 1278.67 222.087C1225.85 168.307 1054.16 2.73047 751.875 0.234375Z" fill="#2295CD"/>
<path d="M1195.55 303.752L1278.23 221.918L1269.76 394.652C1253.55 369.841 1221.41 328.734 1195.55 303.752Z" fill="#22B4CC"/>
<path d="M1270.31 395.86C1310.9 456.846 1388.67 579.633 1377.4 808.313C1393.89 829.62 1473.09 928.945 1473.09 928.945C1544.97 638.25 1432.25 368.062 1278.43 221.906C1275.86 252.645 1270.31 395.86 1270.31 395.86Z" fill="#0A58A2"/>
<path d="M1377.19 804.376C1362.28 942.603 1306.2 1082.11 1185.96 1199.37C1207.87 1215.8 1271.4 1278.56 1271.4 1278.56C1398.46 1159.72 1452.1 1006.14 1473.74 929.127C1449.36 900.013 1377.19 804.376 1377.19 804.376Z" fill="#26458D"/>
<path d="M1187.11 1197.42C1135.58 1249.45 1062 1300.58 971.438 1333.13C951.217 1362.3 867.129 1483.08 867.129 1483.08C1051.77 1452.44 1175.71 1370.21 1271.82 1278.29C1253.77 1259.23 1187.11 1197.42 1187.11 1197.42Z" fill="#212E63"/>
<path d="M973.36 1331.48C840.767 1389.66 662.414 1386.55 540.141 1337.82C583.282 1399.06 647.85 1483.79 647.85 1483.79C739.416 1497.03 812.796 1490.57 868.317 1483.67C891.924 1450.62 973.36 1331.48 973.36 1331.48Z" fill="#244195"/>
<path d="M540.466 1337.82C478.774 1316.69 387.645 1269.68 319.915 1203.04C304.466 1220.2 232.664 1282.18 232.664 1282.18C372.998 1413.82 548.461 1473.93 647.695 1483.32C627.955 1455 540.466 1337.82 540.466 1337.82Z" fill="#13589D"/>
<path d="M320.155 1203.28C303.486 1191.22 263.586 1146 244.079 1117.98C232.73 1131.11 167.691 1208.36 167.691 1208.36C189.325 1235.31 216.27 1265.88 232.728 1282.54C249.042 1272.97 320.155 1203.28 320.155 1203.28Z" fill="#1687CA"/>
<path d="M244.218 1117.97C211.481 1078.29 135.965 952.641 126.161 800.812C99.5876 850.765 40.3984 977.897 40.3984 977.897C62.2919 1046.75 124.581 1162.61 167.828 1208.55C191.638 1179.78 244.218 1117.97 244.218 1117.97Z" fill="#1E90CD"/>
<path d="M126.092 800.861C106.725 585.266 197.415 409.619 315.327 294.025C288.521 266.652 245.446 226.504 230.064 213.238C-42.7959 504.895 -10.8272 794.277 40.4962 978.191C64.1423 933.555 126.092 800.861 126.092 800.861Z" fill="#33BBCF"/>
<path d="M315.231 294.141C382.382 231.694 475.286 172.212 566.247 147.216C617.936 106.702 722.706 22.9109 752.019 0.347656C590.575 0.417969 382.738 65.3025 229.855 213.58C262.682 247.147 315.231 294.141 315.231 294.141Z" fill="#78D4E0"/>
<path d="M564.609 147.187C620.346 129.518 690.705 119.317 752.14 119.097C752.376 94.8181 751.865 0.15625 751.865 0.15625L564.609 147.187Z" fill="#42C4D3"/>
<path d="M749.297 119.298C834.352 115.721 950.803 144.734 1009.62 173.748C992.129 157.452 751.805 -0.0625 751.805 -0.0625L749.297 119.298Z" fill="#22B4CC"/>
<path d="M1119.84 340.781L990.6 601.899L885.773 492.53L1119.84 340.781Z" fill="#037DBA"/>
<path d="M1121.25 730.548L989.926 601.086L1119.32 341.094L1121.25 730.548Z" fill="#064B92"/>
<path d="M885.935 492.656C885.935 492.656 885.349 360.815 886.181 345.323C886.802 333.75 893.346 330.949 902.61 331.44C902.61 331.44 1104.63 330.031 1109.79 330.031C1114.95 330.031 1117.15 334.868 1119.73 341.22C1108.64 348.515 885.935 492.656 885.935 492.656Z" fill="#0292C7"/>
<path d="M885.938 492.656L961.209 659.309L990.633 599.571L885.938 492.656Z" fill="#0A94CD"/>
<path d="M885.938 492.656L887.252 803.156L961.493 659.977L885.938 492.656Z" fill="#0777B7"/>
<path d="M961.172 658.827L1038.6 820.478L1121.61 730.555L990.544 599.488L961.172 658.827Z" fill="#035BA2"/>
<path d="M1107.19 970.081L1038.47 820.446L1121.18 730.453C1121.69 772.116 1116.41 925.442 1107.19 970.081Z" fill="#0B5495"/>
<path d="M887.812 795.002C888.702 832.451 892.291 926.789 866.137 974.937C894.67 955.321 1038.71 820.688 1038.71 820.688L961.769 657.914L887.812 795.002Z" fill="#1B6BB5"/>
<path d="M1106.95 969.611L821.883 1012.66C846.527 998.453 854.051 989.769 868.507 971.172C883.429 960.076 1038.75 820.469 1038.75 820.469L1106.95 969.611Z" fill="#253F8A"/>
<path d="M1106.95 969.375C1058.69 1145.4 895.835 1233.91 754.406 1226.72C770.278 1165.2 823.17 1012.4 823.17 1012.4L1106.95 969.375Z" fill="#222F64"/>
<path d="M756.562 1226.95L677.535 1072.14L823.581 1012.01L756.562 1226.95Z" fill="#233F8B"/>
<path d="M637.266 982.266L677.367 1073.56L825.241 1011.55C767.524 1037.09 679.847 1035.5 637.266 982.266Z" fill="#1753A0"/>
<path d="M756.797 1226.72C688.144 1229.77 550.898 1183.91 506.953 1145.25C558.797 1121.52 678.525 1073.11 678.525 1073.11L756.797 1226.72Z" fill="#0D5EA0"/>
<path d="M507.187 1146.1C459.735 1114.46 395.99 1020.55 390.039 966.305C457.701 979.485 655.68 1018.71 655.68 1018.71L678.495 1073.52L507.187 1146.1Z" fill="#0A77BF"/>
<path d="M388.594 967.268L465.534 818.004L637.369 981.853L655.681 1019.22L388.594 967.268Z" fill="#1A8BC3"/>
<path d="M382.5 740.391C382.5 740.391 383.309 878.112 383.309 901.837C383.309 925.563 388.614 967.528 388.614 967.528L465.521 818.13L382.5 740.391Z" fill="#25A5C7"/>
<path d="M536.952 656.484L465.332 817.88L633.055 977.923C600.149 942.305 606.887 881.69 606.861 858.651C606.845 844.606 606.39 787.924 606.39 787.924L536.952 656.484Z" fill="#2BA8CC"/>
<path d="M382.5 740.391L508.509 601.613L536.925 657.502L465.382 817.998L382.5 740.391Z" fill="#3DB9CD"/>
<path d="M384.374 343.125L510.069 600.727L382.355 740.519L384.374 343.125Z" fill="#62C5D4"/>
<path d="M536.953 657.657L606.851 499.742V788.82L536.953 657.657Z" fill="#49BDCA"/>
<path d="M507.656 601.642L606.795 499.574L536.874 657.515L507.656 601.642Z" fill="#77D1DB"/>
<path d="M384.375 343.359L508.071 602.742L606.666 499.793L384.375 343.359Z" fill="#93D5DF"/>
<path d="M606.795 499.688C606.795 499.688 609.168 369.368 609.168 357.286C609.168 345.206 610.91 332.717 592.137 332.281C574.797 331.878 408.427 332.281 400.774 332.281C393.122 332.281 384.441 334.755 384.441 343.213C390.483 347.241 606.795 499.688 606.795 499.688Z" fill="#7ED1DF"/>
<path fill-rule="evenodd" clip-rule="evenodd" d="M750 0C335.836 0.000234375 0 335.836 0 750C0 1164.16 335.836 1500 750 1500C1164.16 1500 1500 1164.16 1500 750C1500 335.836 1164.16 0 750 0ZM750 10.1166C1158.68 10.1166 1489.88 341.312 1489.88 749.992C1489.88 1158.67 1158.68 1489.87 750 1489.87C341.32 1489.87 10.1252 1158.67 10.1252 749.992C10.1249 341.312 341.32 10.1166 750 10.1166Z" fill="#B4C7D9"/>
<path d="M400.783 334.22C413.351 334.703 589.178 334.126 595.835 334.22C602.492 334.314 608.107 338.684 608.031 347.575C607.961 356.466 607.726 820.896 608.031 888.466C608.336 956.036 640.82 1029.78 747.409 1029.78C853.998 1029.78 886.787 961.783 886.787 888.466V353.481C885.777 336.322 899.059 330.266 913.19 330.194L1099.12 329.242C1117.29 329.242 1118.89 334.793 1119.58 349.675C1120.33 365.84 1125.34 738.597 1114.91 915.714C1104.47 1092.83 956.434 1229.64 756.573 1227.62C556.712 1225.6 391.323 1094.24 384.105 915.714C377.217 745.218 382.579 361.112 382.497 350.683C382.403 340.248 388.215 333.738 400.783 334.22Z" stroke="#B4C7D9" stroke-width="0.999987"/>
<path fill-rule="evenodd" clip-rule="evenodd" d="M750.469 113.672C401.039 113.672 117.656 397.055 117.656 746.484C117.656 1095.91 401.039 1379.3 750.469 1379.3C1099.9 1379.3 1383.28 1095.91 1383.28 746.484C1383.28 397.055 1099.9 113.672 750.469 113.672ZM750.469 123.788C1094.44 123.788 1373.16 402.531 1373.16 746.476C1373.16 1090.44 1094.41 1369.16 750.469 1369.16C406.5 1369.16 127.781 1090.42 127.781 746.476C127.781 402.507 406.523 123.788 750.469 123.788Z" fill="#B4C7D9"/>
</g>
<defs>
<clipPath id="clip0_8590_265">
<rect width="1500" height="1500" fill="white"/>
</clipPath>
</defs>
</svg>
