<?xml version="1.0" encoding="UTF-8"?>
<svg width="1590" height="1590" fill="none" version="1.1" viewBox="0 0 1590 1590" xmlns="http://www.w3.org/2000/svg">
 <g>
  <path d="m795.84 0.039062c78.548 68.543 113.13 102.23 199.79 163.84 85.264 30.068 171.43 69.714 264.67 160.19 51.24-45.949 98.45-87.612 98.45-87.612-56.38-57.345-240.2-233.76-562.91-236.42z" fill="#2295CD"/>
  <path d="m1260 323.99 98.25-87.707-17.34 184.32c-38.7-54.826-58.89-73.974-80.91-96.609z" fill="#22B4CC"/>
  <path d="m1341 420.59c37.88 59.317 133.15 212.31 112.5 442.91 17.6 22.72 112.86 126.67 112.86 126.67 76.74-309.97-43.6-598.07-207.82-753.91-2.73 32.776-17.54 184.33-17.54 184.33z" fill="#0A58A2"/>
  <path d="m1453.4 863.5c-18.37 149.31-76.25 286.16-198.34 407.48 23.23 23.14 95.9 91.98 95.9 91.98 135.63-126.71 192.9-290.47 216-372.59-26.02-31.044-113.56-126.87-113.56-126.87z" fill="#26458D"/>
  <path d="m1255.1 1271c-58.62 56.63-131.73 107.22-231.77 145.42-21.59 31.09-103.91 164.65-103.91 164.65 197.12-32.67 329.42-120.35 432.03-218.36-26.43-25-96.35-91.71-96.35-91.71z" fill="#073B71"/>
  <path d="m1023.3 1416.4c-148.82 52.43-297.39 55.96-454.98 0.63 46.057 65.31 116.95 164.81 116.95 164.81 97.752 14.13 176.09 7.23 235.36-0.12 25.201-35.24 102.67-165.32 102.67-165.32z" fill="#244195"/>
  <path d="m568.39 1417c-80.222-28.49-159.1-76.79-227.57-140.41-18.43 17.14-98.746 90.22-98.746 90.22 149.82 140.36 337.13 204.46 443.07 214.47-21.074-30.2-116.76-164.28-116.76-164.28z" fill="#13589D"/>
  <path d="m340.84 1276.6c-26.309-24.08-60.587-63.41-80.921-91.83-12.116 13.99-87.211 103.34-87.211 103.34 23.096 28.74 51.861 61.33 69.431 79.1 17.416-10.21 98.701-90.61 98.701-90.61z" fill="#1687CA"/>
  <path d="m259.96 1184.8c-45.431-61.09-110.63-181.64-123.14-318.99-28.369 53.264-99.996 176.53-99.996 176.53 23.373 73.42 89.871 196.96 136.04 245.95 25.419-30.68 87.097-103.49 87.097-103.49z" fill="#1E90CD"/>
  <path d="m136.67 866.27c-27.317-262.31 100.01-452.52 200.09-549.04-28.617-29.188-81.044-76.057-97.465-90.202-291.29 310.99-257.17 619.56-202.38 815.67 28.725-47.581 99.748-176.42 99.748-176.42z" fill="#33BBCF"/>
  <path d="m336.78 317.21c72.176-70.58 176.55-132.65 292.55-163.16 55.181-43.2 138.13-124.81 166.46-153.99-172.35 0.074974-393.51 69.219-556.72 227.33 35.045 35.792 97.706 89.825 97.706 89.825z" fill="#78D4E0"/>
  <path d="m629.27 154.1c61.159-14.94 103.49-20.381 166.52-21.177 0.252-25.888-0.019-132.93-0.019-132.93l-166.51 154.1z" fill="#42C4D3"/>
  <path d="m795.78 132.92c58.491 1.152 116.94 5.843 200.7 31.536-18.669-17.376-200.7-164.41-200.7-164.41l2e-3 132.88z" fill="#22B4CC"/>
  <path d="m1133.4 394.84-119.05 263.26-96.57-110.26 215.62-152.99z" fill="#037DBA"/>
  <path d="m1134.7 787.79-120.97-130.52 119.19-262.12 1.78 392.64z" fill="#064B92"/>
  <path d="m917.9 547.96s-0.54-132.92 0.226-148.54c0.572-11.668 6.601-14.492 15.135-13.997 0 0 186.1-1.42 190.85-1.42s6.78 4.877 9.16 11.28c-10.22 7.355-215.37 152.68-215.37 152.68z" fill="#0292C7"/>
  <path d="m917.9 547.96 69.34 168.02 27.102-60.227-96.442-107.79z" fill="#0A94CD"/>
  <path d="m917.9 547.96 1.211 313.04 68.39-144.35-69.601-168.69z" fill="#0777B7"/>
  <path d="m987.21 715.49 71.323 162.98 76.47-90.659-120.74-132.14-27.053 59.825z" fill="#035BA2"/>
  <path d="m1121.7 1029.3-63.3-150.86 76.19-90.731c0.47 42.004-4.39 196.59-12.89 241.59z" fill="#0B5495"/>
  <path d="m919.62 852.78c0.821 37.755 4.127 132.87-19.967 181.41 26.284-19.78 158.97-155.51 158.97-155.51l-70.878-164.11-68.129 138.21z" fill="#1B6BB5"/>
  <path d="m1121.5 1028.8-262.6 43.41c22.702-14.33 29.632-23.09 42.949-41.84 13.746-11.18 156.82-151.93 156.82-151.93l62.83 150.36z" fill="#253F8A"/>
  <path d="m1121.5 1028.6c-44.45 177.46-194.48 266.7-324.76 259.45 14.622-62.02 63.345-216.07 63.345-216.07l261.42-43.38z" fill="#073B71"/>
  <path d="m798.72 1288.3-72.798-156.08 134.54-60.62-61.738 216.7z" fill="#233F8B"/>
  <path d="m688.82 1041.6 36.941 92.04 136.22-62.52c-53.169 25.75-133.94 24.16-173.16-29.52z" fill="#1753A0"/>
  <path d="m798.94 1288c-63.243 3.08-189.67-43.16-230.15-82.14 47.758-23.92 158.05-72.72 158.05-72.72l72.103 154.86z" fill="#0D5EA0"/>
  <path d="m568.99 1206.8c-43.712-31.89-102.43-126.57-107.92-181.27 62.329 13.29 244.71 52.84 244.71 52.84l21.017 55.26-157.81 73.17z" fill="#0A77BF"/>
  <path d="m459.75 1026.4 70.877-150.48 158.29 165.2 16.869 37.67-246.04-52.38z" fill="#1A8BC3"/>
  <path d="m454.14 797.72s0.745 138.85 0.745 162.77 4.887 66.228 4.887 66.228l70.846-150.62-76.478-78.376z" fill="#25A5C7"/>
  <path d="m596.41 713.12-65.975 162.72 154.5 161.36c-30.312-35.91-24.105-97.024-24.129-120.25-0.015-14.16-0.434-71.307-0.434-71.307l-63.966-132.52z" fill="#2BA8CC"/>
  <path d="m454.14 797.72 116.08-139.92 26.177 56.346-65.905 161.81-76.35-78.242z" fill="#3DB9CD"/>
  <path d="m455.86 397.2 115.79 259.71-117.65 140.94 1.859-400.65z" fill="#62C5D4"/>
  <path d="m596.41 714.31 64.389-159.21v291.45l-64.389-132.24z" fill="#49BDCA"/>
  <path d="m569.43 657.84 91.325-102.9-64.41 159.23-26.915-56.33z" fill="#77D1DB"/>
  <path d="m455.86 397.43 113.95 261.51 90.824-103.79-204.77-157.72z" fill="#93D5DF"/>
  <path d="m660.76 555.05s2.186-131.39 2.186-143.57c0-12.18 1.604-24.771-15.689-25.211-15.974-0.406-169.23 0-176.28 0-7.049 0-15.045 2.495-15.045 11.023 5.565 4.06 204.83 157.76 204.83 157.76z" fill="#7ED1DF"/>
 </g>
</svg>
